<?xml version="1.0" encoding="utf-8"?><svg xml:space="preserve" viewBox="0 0 100 100" y="0" x="0" xmlns="http://www.w3.org/2000/svg" id="圖層_1" version="1.1" width="40px" height="40px" xmlns:xlink="http://www.w3.org/1999/xlink" style="width:100%;height:100%;background-size:initial;background-repeat-y:initial;background-repeat-x:initial;background-position-y:initial;background-position-x:initial;background-origin:initial;background-color:initial;background-clip:initial;background-attachment:initial;animation-play-state:paused" ><g class="ldl-scale" style="transform-origin:50% 50%;transform:rotate(0deg) scale(1, 1);animation-play-state:paused" ><path fill="#77a4bd" d="M92.5 58.266L79.29 44.307 65.324 57.513l7.647.212a24.182 24.182 0 0 1-18.345 16.071c-6.356 1.244-12.815-.076-18.182-3.699l-6.257 9.277c5.922 3.994 12.749 6.068 19.739 6.068 2.269 0 4.558-.219 6.834-.661 13.77-2.677 24.558-13.132 27.731-26.737l8.009.222z" style="fill:rgb(106, 218, 251);animation-play-state:paused" ></path>
<path fill="#a0c8d7" d="M43.241 15.219c-13.77 2.677-24.558 13.132-27.731 26.737l-8.01-.222 13.213 13.959 13.962-13.207-7.646-.212a24.182 24.182 0 0 1 18.345-16.071c6.359-1.24 12.817.078 18.182 3.699l6.257-9.277c-7.844-5.289-17.283-7.211-26.572-5.406z" style="fill:rgb(97, 218, 251);animation-play-state:paused" ></path>
<metadata xmlns:d="https://loading.io/stock/" style="animation-play-state:paused" ><d:name style="animation-play-state:paused" >sync</d:name>


<d:tags style="animation-play-state:paused" >reload,arrow,recycle,download,fetch,refresh,update,sync,form</d:tags>


<d:license style="animation-play-state:paused" >by</d:license>


<d:slug style="animation-play-state:paused" >f4ny11</d:slug></metadata></g><!-- generated by https://loading.io/ --></svg>